<svg id="wf-primary-logo-horizontal-teal_svg__Layer_1" xmlns="http://www.w3.org/2000/svg" xmlns:xlink="http://www.w3.org/1999/xlink" x="0" y="0" viewBox="0 0 4036.9 700" style="enable-background:new 0 0 4036.9 700" xml:space="preserve" class="jss7"><style>.wf-primary-logo-horizontal-teal_svg__st1{fill:#00d2d2}.wf-primary-logo-horizontal-teal_svg__st9{fill:#f6f4f0}</style><path class="wf-primary-logo-horizontal-teal_svg__st9" d="m1245.9 207.5-78.8 279.9h-55.5l-55.5-220.8-55.1 220.8h-55.9l-78.7-279.9h49.8l57.5 230.9 56.3-230.9h52.6l56.3 230.1 57.2-230.1zM1275.6 287.5h49.8v199.9h-49.8V287.5zm25.3-33.1c-18.4 0-32.6-13.1-32.6-31.8s14.3-31.4 32.6-31.4 32.6 13.5 32.6 31.4-14.2 31.8-32.6 31.8M1553.1 361.7v125.7h-50.2V373.1c0-28.2-13.1-44.9-38.4-44.9-26.9 0-44.5 18.4-44.5 45.7v113.4h-49.8V287.5h47.7l1.6 29c11.8-18.4 32.6-31 62.8-31 44.7-.1 70.8 30.1 70.8 76.2M1673.1 489.4c-55.5 0-82.8-22.9-83.2-63.2l43.2.4c1.2 17.1 12.7 26.5 40 26.5 25.7 0 36.7-7.8 36.7-20.4 0-40.4-115.5-9-115.5-89 0-35.9 31.4-58.3 82.4-58.3 51 0 77.5 22.9 78.3 62.4h-43.7c-1.2-17.5-13.9-26.1-35.1-26.1-23.3 0-33.8 8.2-33.8 20.8 0 39.6 115.5 6.5 115.5 89 .5 35.9-31.8 57.9-84.8 57.9M2001.1 387.8c0 35.9 20 60.4 51 60.4s51-24.5 51-60.4-19.6-61.2-51-61.2-51 24.9-51 61.2m152.6-.8c0 60-40.4 102.4-101.6 102.4-61.2 0-101.6-40.4-101.6-100.4s40.8-103.6 101.6-103.6 101.6 40.8 101.6 101.6M2376.1 361.7v125.7h-50.2V373.1c0-28.2-13.1-44.9-38.4-44.9-26.9 0-44.5 18.4-44.5 45.7v113.4h-49.8V287.5h47.7l1.6 29c11.8-18.4 32.6-31 62.8-31 44.7-.1 70.8 30.1 70.8 76.2M2567.9 249.1v84.1h120.4v41.2h-120.4v113h-49.8V207.5h187.3v41.6zM2840.5 286.6l-.4 49c-2.8-1.2-6.1-2-13.9-2-24.5 0-45.3 16.7-48.6 46.9v106.9h-49.8V287.5h47.8l.8 32.2c9.8-20 26.1-34.3 51.8-34.3 4.9 0 9.8.8 12.3 1.2M2992.3 414.4v-13.1h-33.5c-32.7 0-50.6 9.8-50.6 28.6 0 14.3 10.2 22.4 32.2 22.4 32.7 0 51.9-20.8 51.9-37.9m72.2 71.4c-7.7 2-16.7 3.7-26.9 3.7-21.6 0-37.5-11-43.3-32.6-6.5 12.2-24.1 32.6-66.9 32.6s-67.7-22-67.7-54.3c0-47.3 46.9-62.9 101.6-62.9h31v-10.2c0-23.3-13.9-37.9-41.6-37.9-23.7 0-38.4 11.4-40.4 31h-45.7c3.3-44.9 38-69.8 89-69.8 56.7 0 87.3 29.8 87.3 79.6v70.2c0 7.7 4.1 12.2 10.2 12.2 3.3 0 5.7-.4 10.2-2l3.2 40.4zM3277.9 361.7v125.7h-50.2V373.1c0-28.2-13.1-44.9-38.4-44.9-26.9 0-44.5 18.4-44.5 45.7v113.4h-49.7V287.5h47.7l1.7 29c11.8-18.4 32.6-31 62.8-31 44.5-.1 70.6 30.1 70.6 76.2M3317.5 388.2c0-60.4 40.8-102.8 98.3-102.8s86.5 33.9 91.4 78.8h-49c-3.7-20.8-15.9-37.5-41.2-37.5-29.4 0-49 22.4-49 60.8s18.4 60.8 48.6 60.8c26.5 0 38-16.3 41.6-36.3h49c-5.3 43.7-35.1 77.5-92.6 77.5-60.4-.1-97.1-42.1-97.1-101.3M3588 387.8c0 35.9 20 60.4 51 60.4s51-24.5 51-60.4-19.6-61.2-51-61.2-51 24.9-51 61.2m152.6-.8c0 60-40.4 102.4-101.6 102.4-61.2 0-101.6-40.4-101.6-100.4s40.8-103.6 101.6-103.6 101.6 40.8 101.6 101.6M3780.2 287.5h49.8v199.9h-49.8V287.5zm25.3-33.1c-18.4 0-32.6-13.1-32.6-31.8s14.3-31.4 32.6-31.4c18.4 0 32.6 13.5 32.6 31.4s-14.2 31.8-32.6 31.8M3952 489.4c-55.5 0-82.8-22.9-83.2-63.2l43.3.4c1.2 17.1 12.7 26.5 40 26.5 25.7 0 36.7-7.8 36.7-20.4 0-40.4-115.5-9-115.5-89 0-35.9 31.4-58.3 82.4-58.3 51 0 77.5 22.9 78.3 62.4h-43.7c-1.2-17.5-13.9-26.1-35.1-26.1-23.3 0-33.8 8.2-33.8 20.8 0 39.6 115.5 6.5 115.5 89 .4 35.9-31.9 57.9-84.9 57.9M1927.1 484.1c-7 2.9-19.7 5.3-34 5.3-50.9 0-80-29.5-80-74.2V327h-29.9v-40.6h32.8v-57.8h47.2v57.8h61.1v40.2h-61.1V414c0 19.7 9.4 33.2 37.3 33.2 9 0 17.2-1.2 25-4.5l1.6 41.4z"></path><path class="wf-primary-logo-horizontal-teal_svg__st1" d="M391 642.8c-7.1-1.4-17.8-20.9-10.3-59.6 2.1-10.6 14.9-66.1 67.7-123.4 6.6-7.2 13.5-14 20.8-20.6l-19.4 99.6c-15.7 80.9-47.1 104.1-57.8 104.1-.3 0-.7 0-1-.1m196.5-513.4c7.1-36.7 27.2-59.8 42.1-68.4 3.6-2.1 6.3-3 8.5-3.5 2.7-.6 5.4.9 6.2 3.6 1.6 5.4 2.7 16.2-.9 34.7-4.2 21.5-16.7 48.3-63.6 73.1l7.7-39.5zM640.1 0C597 1.3 545.6 45.9 531.6 118.5l-14.7 75.4c-29.7 9.1-66.5 17.4-111.8 24.6-12.3 2-22 11.8-23.9 24.2-16.3 108-52.5 155.7-72.7 166.7-2.6 1.4-5.9.3-7-2.5-6.8-17.3-11.5-64.6 2.2-135.2.4-1.8.5-3.7.5-5.5 0-14-10.4-26.4-25.1-28.3-15.4-1.9-28.9 9.9-31.9 25.1-16 80.5-53.2 140-75.5 159.5-3 2.6-7.8.6-8.1-3.3-1.3-15.2 0-46.2 12.2-109.4 1.6-8.4-.6-17-6-23.6-5.4-6.6-13.5-10.4-22-10.4-7.5 0-49.2 2.8-134.6 57.1C5 338.1.4 346.7 0 355.7v2.6c.3 6.3 2.6 12.5 7.3 17.8 9.4 10.6 25.7 11.8 37.7 4.2 28.3-17.9 50.5-29.1 66.9-36-10.8 71.7-6.3 108.1 14.3 128.2 12.2 11.9 29 16.3 47.6 12.4 25.6-5.5 50.7-30.3 72.3-64.3 3.8 12 9.3 22.6 16.7 30.8 11.6 12.8 27 18.9 43.8 17.3 43.9-4.1 102.2-58.6 127.6-197.3 25.5-4.4 48.9-9.4 70.5-14.9L485.6 355c-130.1 82.3-157.4 199.7-160.9 217.4-14.9 76.6 18.3 119.2 55.4 126.5 3.4.7 6.8 1 10.2 1.1h3.9c43.3-1.3 91.4-46.2 111.6-150.3l30.8-158.3c45.2-24.9 98.3-42.2 158.8-51.8 13.6-2.2 23.4-13.6 24-26.8v-2.7c-.1-2.5-.6-5.1-1.4-7.7-4.4-13.5-18.9-21.2-32.9-18.9-52 8.3-96.6 21.5-134.8 37.8l16.3-84C646 207 688.2 164.7 699.5 106.8 712.8 38 684.4 7.1 653.3 1c-3-.6-6.2-.9-9.4-1h-3.8z"></path><defs><path id="wf-primary-logo-horizontal-teal_svg__SVGID_00000123429239986859396210000005864968965792712629_" d="M391 642.8c-7.1-1.4-17.8-20.9-10.3-59.6 2.1-10.6 14.9-66.1 67.7-123.4 6.6-7.2 13.5-14 20.8-20.6l-19.4 99.6c-15.7 80.9-47.1 104.1-57.8 104.1-.3 0-.7 0-1-.1m196.5-513.4c7.1-36.7 27.2-59.8 42.1-68.4 3.6-2.1 6.3-3 8.5-3.5 2.7-.6 5.4.9 6.2 3.6 1.6 5.4 2.7 16.2-.9 34.7-4.2 21.5-16.7 48.3-63.6 73.1l7.7-39.5zM640.1 0C597 1.3 545.6 45.9 531.6 118.5l-14.7 75.4c-29.7 9.1-66.5 17.4-111.8 24.6-12.3 2-22 11.8-23.9 24.2-16.3 108-52.5 155.7-72.7 166.7-2.6 1.4-5.9.3-7-2.5-6.8-17.3-11.5-64.6 2.2-135.2.4-1.8.5-3.7.5-5.5 0-14-10.4-26.4-25.1-28.3-15.4-1.9-28.9 9.9-31.9 25.1-16 80.5-53.2 140-75.5 159.5-3 2.6-7.8.6-8.1-3.3-1.3-15.2 0-46.2 12.2-109.4 1.6-8.4-.6-17-6-23.6-5.4-6.6-13.5-10.4-22-10.4-7.5 0-49.2 2.8-134.6 57.1C5 338.1.4 346.7 0 355.7v2.6c.3 6.3 2.6 12.5 7.3 17.8 9.4 10.6 25.7 11.8 37.7 4.2 28.3-17.9 50.5-29.1 66.9-36-10.8 71.7-6.3 108.1 14.3 128.2 12.2 11.9 29 16.3 47.6 12.4 25.6-5.5 50.7-30.3 72.3-64.3 3.8 12 9.3 22.6 16.7 30.8 11.6 12.8 27 18.9 43.8 17.3 43.9-4.1 102.2-58.6 127.6-197.3 25.5-4.4 48.9-9.4 70.5-14.9L485.6 355c-130.1 82.3-157.4 199.7-160.9 217.4-14.9 76.6 18.3 119.2 55.4 126.5 3.4.7 6.8 1 10.2 1.1h3.9c43.3-1.3 91.4-46.2 111.6-150.3l30.8-158.3c45.2-24.9 98.3-42.2 158.8-51.8 13.6-2.2 23.4-13.6 24-26.8v-2.7c-.1-2.5-.6-5.1-1.4-7.7-4.4-13.5-18.9-21.2-32.9-18.9-52 8.3-96.6 21.5-134.8 37.8l16.3-84C646 207 688.2 164.7 699.5 106.8 712.8 38 684.4 7.1 653.3 1c-3-.6-6.2-.9-9.4-1h-3.8z"></path></defs><clipPath id="wf-primary-logo-horizontal-teal_svg__SVGID_00000107551494885018805600000001883513323870327694_"><use xlink:href="#wf-primary-logo-horizontal-teal_svg__SVGID_00000123429239986859396210000005864968965792712629_" style="overflow:visible"></use></clipPath><path class="wf-primary-logo-horizontal-teal_svg__st1" d="M0 0h719.4v700H0z" style="clip-path:url(#wf-primary-logo-horizontal-teal_svg__SVGID_00000107551494885018805600000001883513323870327694_)"></path><path class="wf-primary-logo-horizontal-teal_svg__st1" d="M580 456.4c0 18.9 15.3 34.2 34.2 34.2s34.2-15.3 34.2-34.2-15.3-34.2-34.2-34.2-34.2 15.3-34.2 34.2"></path><defs><path id="wf-primary-logo-horizontal-teal_svg__SVGID_00000183962085868971476050000005285808048321592970_" d="M580 456.4c0 18.9 15.3 34.2 34.2 34.2s34.2-15.3 34.2-34.2-15.3-34.2-34.2-34.2-34.2 15.3-34.2 34.2"></path></defs><clipPath id="wf-primary-logo-horizontal-teal_svg__SVGID_00000097490161809109731630000016897897055595438214_"><use xlink:href="#wf-primary-logo-horizontal-teal_svg__SVGID_00000183962085868971476050000005285808048321592970_" style="overflow:visible"></use></clipPath><path class="wf-primary-logo-horizontal-teal_svg__st1" d="M580 422.2h68.5v68.5H580z" style="clip-path:url(#wf-primary-logo-horizontal-teal_svg__SVGID_00000097490161809109731630000016897897055595438214_)"></path></svg>